<svg width="18" height="17" viewBox="0 0 18 17" fill="none" xmlns="http://www.w3.org/2000/svg">
<path d="M9.14 0.664062C4.53167 0.664062 0.806671 3.85573 0.806671 7.7974C0.834658 8.95191 1.15514 10.0804 1.73813 11.0773C2.32111 12.0742 3.14753 12.9069 4.14 13.4974V16.3307C4.14106 16.4113 4.16548 16.4899 4.2103 16.5569C4.25512 16.6239 4.31841 16.6765 4.3925 16.7082C4.4666 16.74 4.54831 16.7496 4.62774 16.7358C4.70717 16.7221 4.78091 16.6856 4.84 16.6307L6.69834 14.8724L6.90667 14.6641C7.63834 14.8357 8.38834 14.9224 9.14 14.9224C13.74 14.9224 17.4733 11.7307 17.4733 7.7974C17.4733 3.86406 13.74 0.664062 9.14 0.664062ZM9.14 13.6724C8.39137 13.6752 7.64577 13.5771 6.92334 13.3807L5.14 14.9724V12.6474C4.24206 12.1843 3.48289 11.4915 2.9398 10.6395C2.39672 9.78757 2.08912 8.8069 2.04834 7.7974C2.04834 4.7224 5.03167 1.91406 9.13167 1.91406C13.2317 1.91406 16.215 4.7224 16.215 7.7974C16.215 10.8724 13.2067 13.6724 9.14 13.6724Z" fill="#5E5E64"/>
</svg>
