<svg width="16" height="17" viewBox="0 0 16 17" fill="none" xmlns="http://www.w3.org/2000/svg">
<path d="M3.50004 7.16406H1.83337C1.55723 7.16406 1.33337 7.38792 1.33337 7.66406V13.9974C1.33337 14.2735 1.55723 14.4974 1.83337 14.4974H3.50004C3.77618 14.4974 4.00004 14.2735 4.00004 13.9974V7.66406C4.00004 7.38792 3.77618 7.16406 3.50004 7.16406Z" fill="#5E5E64"/>
<path d="M5 6.70789C5.00012 6.57533 5.05287 6.44824 5.14667 6.35456L8.98 2.52123C9.07375 2.42759 9.20083 2.375 9.33333 2.375C9.46583 2.375 9.59292 2.42759 9.68667 2.52123L10.1393 2.97389C10.1988 3.03336 10.2424 3.10687 10.2659 3.18763C10.2894 3.26838 10.2922 3.35377 10.274 3.43589L9.66667 6.16789H14.1667C14.2993 6.16789 14.4265 6.22057 14.5202 6.31434C14.614 6.40811 14.6667 6.53529 14.6667 6.66789V8.67989C14.6667 9.2217 14.5567 9.75788 14.3433 10.2559L12.7967 13.8646C12.7581 13.9546 12.694 14.0314 12.6122 14.0853C12.5304 14.1392 12.4346 14.168 12.3367 14.1679H5.5C5.36739 14.1679 5.24021 14.1152 5.14645 14.0214C5.05268 13.9277 5 13.8005 5 13.6679V6.70789Z" fill="#5E5E64"/>
</svg>
