<svg width="20" height="20" viewBox="0 0 20 20" fill="none" xmlns="http://www.w3.org/2000/svg">
<g clip-path="url(#clip0_751_1148)">
<path d="M3.75 8.5H4.25V8V5C4.25 2.61749 6.72001 0.5 10 0.5C13.28 0.5 15.75 2.61749 15.75 5V8V8.5H16.25H17.5C18.0621 8.5 18.5846 8.67956 18.9554 8.97622C19.3234 9.27057 19.5 9.64277 19.5 10V18C19.5 18.3572 19.3234 18.7294 18.9554 19.0238C18.5846 19.3204 18.0621 19.5 17.5 19.5H2.5C1.93791 19.5 1.41541 19.3204 1.04458 19.0238C0.676646 18.7294 0.5 18.3572 0.5 18V10C0.5 9.64277 0.676646 9.27057 1.04458 8.97622C1.41541 8.67956 1.93791 8.5 2.5 8.5H3.75ZM13.75 8.5H14.25V8V5C14.25 2.97151 12.2338 1.5 10 1.5C7.76624 1.5 5.75 2.97151 5.75 5V8V8.5H6.25H13.75ZM11.25 18.5H11.75V18V16.0248C12.0743 15.8323 12.3548 15.584 12.5686 15.2893C12.8453 14.9079 12.9991 14.4633 13 14.001C13 13.6062 12.889 13.2214 12.6831 12.8778C12.4778 12.5352 12.1852 12.2439 11.8353 12.019C11.4854 11.7942 11.0833 11.639 10.6597 11.5598C10.2364 11.4807 9.79732 11.4785 9.37307 11.5534C8.8023 11.6527 8.26946 11.8899 7.84954 12.247C7.42861 12.605 7.13568 13.0722 7.03489 13.5951C6.93366 14.1204 7.0361 14.6527 7.31518 15.1163C7.53836 15.4869 7.86286 15.7955 8.25 16.025V18V18.5H8.75H11.25Z" fill="white" stroke="black"/>
</g>
<defs>
<clipPath id="clip0_751_1148">
<rect width="20" height="20" fill="white"/>
</clipPath>
</defs>
</svg>
