<svg width="14" height="4" viewBox="0 0 14 4" fill="none" xmlns="http://www.w3.org/2000/svg">
<path fill-rule="evenodd" clip-rule="evenodd" d="M12.2499 3.2505C11.9184 3.2505 11.6004 3.1188 11.366 2.88438C11.1316 2.64996 10.9999 2.33202 10.9999 2.0005C10.9999 1.66898 11.1316 1.35104 11.366 1.11662C11.6004 0.882196 11.9184 0.7505 12.2499 0.7505C12.5814 0.7505 12.8994 0.882196 13.1338 1.11662C13.3682 1.35104 13.4999 1.66898 13.4999 2.0005C13.4999 2.33202 13.3682 2.64996 13.1338 2.88438C12.8994 3.1188 12.5814 3.2505 12.2499 3.2505ZM8.25191 2.0005C8.25191 1.66898 8.12021 1.35104 7.88579 1.11662C7.65137 0.882196 7.33343 0.7505 7.00191 0.7505C6.67039 0.7505 6.35244 0.882196 6.11802 1.11662C5.8836 1.35104 5.75191 1.66898 5.75191 2.0005C5.75191 2.33202 5.8836 2.64996 6.11802 2.88438C6.35244 3.1188 6.67039 3.2505 7.00191 3.2505C7.33343 3.2505 7.65137 3.1188 7.88579 2.88438C8.12021 2.64996 8.25191 2.33202 8.25191 2.0005ZM3.00391 2.0005C3.00397 1.83635 2.9717 1.67379 2.90895 1.52211C2.84619 1.37043 2.75417 1.23259 2.63814 1.11647C2.52212 1.00035 2.38435 0.908221 2.23272 0.845342C2.08109 0.782463 1.91856 0.750066 1.75441 0.75C1.59025 0.749934 1.4277 0.782202 1.27601 0.844959C1.12433 0.907717 0.986496 0.999736 0.870376 1.11576C0.754257 1.23179 0.662127 1.36955 0.599248 1.52118C0.536369 1.67282 0.503972 1.83535 0.503906 1.9995C0.503774 2.33102 0.635343 2.64902 0.869669 2.88353C1.104 3.11804 1.42189 3.24987 1.75341 3.25C2.08493 3.25013 2.40292 3.11856 2.63744 2.88424C2.87195 2.64991 3.00377 2.33202 3.00391 2.0005Z" fill="#7E7E7E"/>
</svg>
