<svg width="18" height="18" viewBox="0 0 18 18" fill="none" xmlns="http://www.w3.org/2000/svg">
<path fill-rule="evenodd" clip-rule="evenodd" d="M12.4175 12.6889C11.2268 13.8233 9.63709 14.4426 7.99287 14.4127C6.34866 14.3828 4.78247 13.7061 3.63382 12.5293C2.48517 11.3525 1.84661 9.77033 1.85657 8.12587C1.86653 6.48142 2.52421 4.90715 3.68704 3.74432C4.84987 2.58149 6.42414 1.92382 8.06859 1.91385C9.71305 1.90389 11.2952 2.54245 12.472 3.6911C13.6488 4.83975 14.3255 6.40594 14.3554 8.05015C14.3853 9.69437 13.766 11.2841 12.6317 12.4748C12.5438 12.5275 12.4702 12.6011 12.4175 12.6889ZM12.95 13.8906C11.4725 15.1402 9.56931 15.7703 7.63809 15.6494C5.70686 15.5285 3.89711 14.6658 2.58706 13.2417C1.27702 11.8176 0.568081 9.94233 0.608412 8.00774C0.648743 6.07316 1.43523 4.22902 2.80348 2.86076C4.17174 1.49251 6.01587 0.706025 7.95046 0.665694C9.88505 0.625362 11.7604 1.3343 13.1844 2.64435C14.6085 3.95439 15.4712 5.76414 15.5921 7.69537C15.713 9.62659 15.0829 11.5298 13.8333 13.0073L17.0667 16.2406C17.1281 16.2978 17.1773 16.3668 17.2115 16.4435C17.2456 16.5202 17.264 16.6029 17.2655 16.6868C17.267 16.7708 17.2515 16.8541 17.2201 16.9319C17.1887 17.0098 17.1419 17.0805 17.0825 17.1398C17.0232 17.1992 16.9525 17.2459 16.8747 17.2774C16.7968 17.3088 16.7135 17.3242 16.6296 17.3228C16.5456 17.3213 16.4629 17.3029 16.3862 17.2688C16.3095 17.2346 16.2405 17.1853 16.1833 17.1239L12.95 13.8906Z" fill="#B9BABE"/>
</svg>
