<svg width="24" height="24" viewBox="0 0 24 24" fill="none" xmlns="http://www.w3.org/2000/svg">
<path d="M11.2186 0.509422C11.2907 0.356503 11.4022 0.227755 11.5405 0.137732C11.6787 0.0477083 11.8383 0 12.0011 0C12.1639 0 12.3235 0.0477083 12.4617 0.137732C12.6 0.227755 12.7115 0.356503 12.7836 0.509422L15.9506 7.23232C15.9714 7.27664 16.0022 7.31499 16.0403 7.34408C16.0784 7.37317 16.1227 7.39212 16.1694 7.39929L23.2528 8.47793C23.4139 8.50244 23.5652 8.57367 23.6897 8.68356C23.8142 8.79346 23.9069 8.93764 23.9572 9.0998C24.0076 9.26197 24.0136 9.43566 23.9747 9.60124C23.9357 9.76682 23.8533 9.91768 23.7368 10.0368L18.6116 15.2703C18.5778 15.3047 18.5526 15.3472 18.538 15.3942C18.5234 15.4411 18.5199 15.491 18.5278 15.5397L19.7378 22.9292C19.7653 23.0974 19.7473 23.2703 19.6859 23.4283C19.6244 23.5863 19.522 23.7232 19.3901 23.8234C19.2583 23.9236 19.1023 23.9831 18.9398 23.9952C18.7773 24.0074 18.6149 23.9717 18.4708 23.8921L12.1355 20.4039C12.0938 20.381 12.0475 20.3691 12.0005 20.3691C11.9535 20.3691 11.9072 20.381 11.8656 20.4039L5.53026 23.8945C5.38617 23.9741 5.2237 24.0098 5.06122 23.9977C4.89875 23.9855 4.74276 23.926 4.61091 23.8258C4.47907 23.7256 4.37662 23.5888 4.31517 23.4308C4.25372 23.2727 4.23572 23.0998 4.2632 22.9317L5.47325 15.5409C5.48115 15.4922 5.47766 15.4423 5.46306 15.3954C5.44847 15.3485 5.42322 15.306 5.38948 15.2715L0.264232 10.0368C0.147377 9.91773 0.06469 9.76677 0.025541 9.60102C-0.013608 9.43526 -0.00765369 9.26133 0.0427292 9.09894C0.0931121 8.93655 0.185909 8.79219 0.310605 8.68221C0.435301 8.57224 0.586909 8.50105 0.748251 8.47671L7.83168 7.39929C7.87833 7.39212 7.92261 7.37317 7.96072 7.34408C7.99882 7.31499 8.0296 7.27664 8.05042 7.23232L11.2186 0.509422Z" fill="#FF0558"/>
</svg>
